<svg xmlns="http://www.w3.org/2000/svg" xmlns:xlink="http://www.w3.org/1999/xlink" width="40" zoomAndPan="magnify" viewBox="0 0 30 30.000001" height="40" preserveAspectRatio="xMidYMid meet" version="1.0"><defs><clipPath id="bc6bc70729"><path d="M 9.582031 3.050781 L 20.46875 3.050781 L 20.46875 26 L 9.582031 26 Z M 9.582031 3.050781 " clip-rule="nonzero"/></clipPath></defs><g clip-path="url(#bc6bc70729)"><path fill="#026c5e" d="M 17.914062 6.855469 L 20.414062 6.855469 L 20.414062 3.089844 L 17.222656 3.089844 L 17.222656 3.105469 C 13.027344 3.257812 12.164062 5.605469 12.089844 8.089844 L 12.082031 8.089844 L 12.082031 10.707031 L 9.582031 10.707031 L 9.582031 14.476562 L 12.082031 14.476562 L 12.082031 25.941406 L 16.5625 25.941406 L 16.5625 14.476562 L 19.777344 14.476562 L 20.414062 10.707031 L 16.5625 10.707031 L 16.5625 8.367188 C 16.5625 7.535156 17.121094 6.855469 17.914062 6.855469 Z M 17.914062 6.855469 " fill-opacity="1" fill-rule="nonzero"/></g></svg>