<svg xmlns="http://www.w3.org/2000/svg" xmlns:xlink="http://www.w3.org/1999/xlink" width="40" zoomAndPan="magnify" viewBox="0 0 30 30.000001" height="40" preserveAspectRatio="xMidYMid meet" version="1.0"><defs><clipPath id="60e4fbdc75"><path d="M 3.675781 3.046875 L 26.902344 3.046875 L 26.902344 26 L 3.675781 26 Z M 3.675781 3.046875 " clip-rule="nonzero"/></clipPath></defs><g clip-path="url(#60e4fbdc75)"><path fill="#026c5e" d="M 21.042969 25.980469 L 9.304688 25.980469 C 6.203125 25.980469 3.707031 23.484375 3.707031 20.382812 L 3.707031 8.644531 C 3.707031 5.542969 6.203125 3.046875 9.304688 3.046875 L 20.980469 3.046875 C 24.085938 3.046875 26.578125 5.542969 26.578125 8.644531 L 26.578125 20.324219 C 26.578125 23.425781 24.085938 25.917969 20.980469 25.917969 Z M 9.304688 4.875 C 7.234375 4.875 5.53125 6.578125 5.53125 8.644531 L 5.53125 20.324219 C 5.53125 22.390625 7.234375 24.09375 9.304688 24.09375 L 20.980469 24.09375 C 23.050781 24.09375 24.753906 22.390625 24.753906 20.324219 L 24.753906 8.644531 C 24.753906 6.578125 23.050781 4.875 20.980469 4.875 Z M 9.304688 4.875 " fill-opacity="1" fill-rule="nonzero"/></g><path fill="#026c5e" d="M 15.203125 21.902344 C 11.1875 21.902344 7.964844 18.679688 7.964844 14.664062 C 7.964844 10.652344 11.1875 7.429688 15.203125 7.429688 C 19.21875 7.429688 22.441406 10.652344 22.441406 14.664062 C 22.441406 18.679688 19.21875 21.902344 15.203125 21.902344 Z M 15.203125 9.191406 C 12.164062 9.191406 9.730469 11.625 9.730469 14.664062 C 9.730469 17.707031 12.164062 20.140625 15.203125 20.140625 C 18.246094 20.140625 20.679688 17.707031 20.679688 14.664062 C 20.679688 11.625 18.246094 9.191406 15.203125 9.191406 Z M 15.203125 9.191406 " fill-opacity="1" fill-rule="nonzero"/><path fill="#026c5e" d="M 15.203125 17.949219 C 13.378906 17.949219 11.917969 16.492188 11.917969 14.664062 C 11.917969 12.839844 13.378906 11.382812 15.203125 11.382812 C 17.027344 11.382812 18.488281 12.839844 18.488281 14.664062 C 18.488281 16.492188 17.027344 17.949219 15.203125 17.949219 Z M 15.203125 13.207031 C 14.414062 13.207031 13.742188 13.875 13.742188 14.664062 C 13.742188 15.457031 14.414062 16.125 15.203125 16.125 C 15.996094 16.125 16.664062 15.457031 16.664062 14.664062 C 16.664062 13.875 15.996094 13.207031 15.203125 13.207031 Z M 15.203125 13.207031 " fill-opacity="1" fill-rule="nonzero"/><path fill="#026c5e" d="M 23.050781 7.855469 C 23.050781 8.015625 23.019531 8.171875 22.957031 8.320312 C 22.894531 8.46875 22.808594 8.601562 22.695312 8.714844 C 22.578125 8.828125 22.449219 8.914062 22.300781 8.976562 C 22.148438 9.039062 21.996094 9.070312 21.832031 9.070312 C 21.671875 9.070312 21.515625 9.039062 21.367188 8.976562 C 21.21875 8.914062 21.085938 8.828125 20.972656 8.714844 C 20.859375 8.601562 20.769531 8.46875 20.710938 8.320312 C 20.648438 8.171875 20.617188 8.015625 20.617188 7.855469 C 20.617188 7.691406 20.648438 7.535156 20.710938 7.386719 C 20.769531 7.238281 20.859375 7.109375 20.972656 6.992188 C 21.085938 6.878906 21.21875 6.792969 21.367188 6.730469 C 21.515625 6.667969 21.671875 6.636719 21.832031 6.636719 C 21.996094 6.636719 22.148438 6.667969 22.300781 6.730469 C 22.449219 6.792969 22.578125 6.878906 22.695312 6.992188 C 22.808594 7.109375 22.894531 7.238281 22.957031 7.386719 C 23.019531 7.535156 23.050781 7.691406 23.050781 7.855469 Z M 23.050781 7.855469 " fill-opacity="1" fill-rule="nonzero"/></svg>