<svg xmlns="http://www.w3.org/2000/svg" xmlns:xlink="http://www.w3.org/1999/xlink" width="40" zoomAndPan="magnify" viewBox="0 0 30 30.000001" height="40" preserveAspectRatio="xMidYMid meet" version="1.0"><defs><clipPath id="15a3431c0d"><path d="M 18 3.101562 L 26.613281 3.101562 L 26.613281 16 L 18 16 Z M 18 3.101562 " clip-rule="nonzero"/></clipPath><clipPath id="0501ca702c"><path d="M 4 3.101562 L 19 3.101562 L 19 26.328125 L 4 26.328125 Z M 4 3.101562 " clip-rule="nonzero"/></clipPath><clipPath id="0bf0f04654"><path d="M 3.386719 3.101562 L 19 3.101562 L 19 26.328125 L 3.386719 26.328125 Z M 3.386719 3.101562 " clip-rule="nonzero"/></clipPath></defs><g clip-path="url(#15a3431c0d)"><path fill="#026c5e" d="M 18.460938 7.148438 C 18.089844 5.882812 17.828125 4.601562 18.550781 3.171875 C 18.644531 3.164062 19.433594 3.179688 19.464844 3.183594 C 19.632812 3.199219 19.804688 3.222656 19.96875 3.253906 C 23.121094 3.835938 25.699219 6.921875 26.140625 8.597656 C 26.28125 9.148438 26.300781 9.433594 26.339844 9.882812 C 26.496094 11.761719 25.222656 14.949219 23.183594 15.890625 C 24.246094 15.019531 26.03125 10.46875 20.816406 7.851562 C 19.453125 7.164062 18.46875 6.96875 18.460938 7.148438 Z M 18.460938 7.148438 " fill-opacity="1" fill-rule="nonzero"/></g><g clip-path="url(#0501ca702c)"><path fill="#026c5e" d="M 14.609375 3.203125 L 18.535156 3.1875 C 18.394531 5.535156 18.523438 19.027344 18.523438 19.027344 C 18.492188 21.246094 17.539062 22.894531 16.390625 23.992188 C 16.289062 24.089844 16.191406 24.191406 16.074219 24.277344 C 14.597656 25.527344 13.148438 26.109375 11.15625 26.09375 C 9.195312 26.066406 7.714844 25.328125 6.464844 24.246094 C 5.523438 23.4375 4.769531 22.382812 4.34375 20.933594 C 3.421875 17.75 4.613281 14.648438 7.261719 12.84375 C 7.300781 12.800781 7.359375 12.757812 7.417969 12.730469 C 8.625 11.890625 10.503906 11.390625 12.25 11.675781 L 12.25 15.6875 C 11.042969 15.375 9.960938 15.644531 9.164062 16.3125 C 9.152344 16.3125 9.152344 16.328125 9.136719 16.339844 C 8.367188 16.996094 7.929688 17.960938 7.984375 19.058594 C 8.128906 21.019531 9.75 22.242188 11.511719 22.15625 C 11.511719 22.15625 11.527344 22.15625 11.527344 22.15625 C 13.230469 21.984375 14.640625 20.59375 14.597656 18.714844 Z M 14.609375 3.203125 " fill-opacity="1" fill-rule="evenodd"/></g><g clip-path="url(#0bf0f04654)"><path stroke-linecap="round" transform="matrix(0.142197, 0, 0, 0.142197, -3049.119838, -2947.027746)" fill="none" stroke-linejoin="miter" d="M 21545.685617 20747.50816 L 21573.293686 20747.398277 C 21572.304741 20763.908177 21573.211274 20858.79203 21573.211274 20858.79203 C 21572.991508 20874.395396 21566.288654 20885.988038 21558.212263 20893.707309 C 21557.498025 20894.394077 21556.811257 20895.108316 21555.987135 20895.712672 C 21545.603205 20904.503301 21535.411569 20908.596437 21521.401504 20908.486554 C 21507.611205 20908.294259 21497.199804 20903.102294 21488.409175 20895.492906 C 21481.788732 20889.806468 21476.486884 20882.389374 21473.492576 20872.197739 C 21467.009487 20849.809106 21475.388055 20827.997357 21494.013201 20815.305886 C 21494.287908 20815.003709 21494.699968 20814.701531 21495.112029 20814.509236 C 21503.60048 20808.603032 21516.813895 20805.08678 21529.093305 20807.092142 L 21529.093305 20835.304568 C 21520.604853 20833.10691 21512.995465 20835.00239 21507.391439 20839.699882 C 21507.309027 20839.699882 21507.309027 20839.809765 21507.199144 20839.892177 C 21501.787413 20844.507257 21498.710693 20851.292524 21499.095283 20859.011795 C 21500.111699 20872.802095 21511.512047 20881.400429 21523.901339 20880.796073 C 21523.901339 20880.796073 21524.011222 20880.796073 21524.011222 20880.796073 C 21535.988454 20879.587361 21545.905383 20869.807787 21545.603205 20856.594372 Z M 21545.685617 20747.50816 " stroke="#000000" stroke-width="0.17" stroke-opacity="1" stroke-miterlimit="1.5"/></g></svg>