<svg xmlns="http://www.w3.org/2000/svg" xmlns:xlink="http://www.w3.org/1999/xlink" width="40" zoomAndPan="magnify" viewBox="0 0 30 30.000001" height="40" preserveAspectRatio="xMidYMid meet" version="1.0"><defs><clipPath id="4c0612fe26"><path d="M 3.285156 2.902344 L 26.511719 2.902344 L 26.511719 26.128906 L 3.285156 26.128906 Z M 3.285156 2.902344 " clip-rule="nonzero"/></clipPath></defs><g clip-path="url(#4c0612fe26)"><path fill="#026c5e" d="M 26.601562 14.59375 C 26.601562 15.359375 26.527344 16.117188 26.378906 16.867188 C 26.230469 17.617188 26.007812 18.347656 25.714844 19.054688 C 25.421875 19.761719 25.0625 20.433594 24.636719 21.070312 C 24.210938 21.707031 23.730469 22.296875 23.1875 22.839844 C 22.648438 23.382812 22.058594 23.863281 21.421875 24.289062 C 20.785156 24.714844 20.113281 25.074219 19.40625 25.367188 C 18.699219 25.660156 17.96875 25.882812 17.21875 26.03125 C 16.46875 26.179688 15.710938 26.253906 14.945312 26.257812 C 14.179688 26.253906 13.421875 26.179688 12.671875 26.03125 C 11.917969 25.882812 11.191406 25.660156 10.484375 25.367188 C 9.777344 25.074219 9.105469 24.714844 8.46875 24.289062 C 7.832031 23.863281 7.242188 23.382812 6.699219 22.839844 C 6.160156 22.296875 5.675781 21.707031 5.25 21.070312 C 4.824219 20.433594 4.46875 19.761719 4.175781 19.054688 C 3.882812 18.347656 3.660156 17.617188 3.511719 16.867188 C 3.359375 16.117188 3.285156 15.359375 3.285156 14.59375 C 3.285156 13.824219 3.359375 13.066406 3.511719 12.316406 C 3.660156 11.566406 3.882812 10.835938 4.175781 10.128906 C 4.46875 9.421875 4.824219 8.75 5.25 8.113281 C 5.675781 7.476562 6.160156 6.886719 6.699219 6.34375 C 7.242188 5.804688 7.832031 5.320312 8.46875 4.894531 C 9.105469 4.46875 9.777344 4.109375 10.484375 3.816406 C 11.191406 3.523438 11.917969 3.300781 12.671875 3.152344 C 13.421875 3.003906 14.179688 2.929688 14.945312 2.929688 C 15.710938 2.929688 16.46875 3.003906 17.21875 3.152344 C 17.96875 3.300781 18.699219 3.523438 19.40625 3.816406 C 20.113281 4.109375 20.785156 4.46875 21.421875 4.894531 C 22.058594 5.320312 22.648438 5.804688 23.1875 6.34375 C 23.730469 6.886719 24.210938 7.476562 24.636719 8.113281 C 25.0625 8.75 25.421875 9.421875 25.714844 10.128906 C 26.007812 10.835938 26.230469 11.566406 26.378906 12.316406 C 26.527344 13.066406 26.601562 13.824219 26.601562 14.59375 Z M 26.601562 14.59375 " fill-opacity="1" fill-rule="nonzero"/></g><path stroke-linecap="round" transform="matrix(0.0695186, 0, 0, 0.0695186, -2120.534174, -646.115335)" fill-opacity="1" fill="#ffffff" fill-rule="evenodd" stroke-linejoin="round" d="M 30640.400716 9422.364481 L 30685.689868 9422.02734 L 30795.709916 9582.112691 L 30750.027434 9581.719361 Z M 30640.400716 9422.364481 " stroke="#ffffff" stroke-width="2.14" stroke-opacity="1" stroke-miterlimit="1.5"/><path stroke-linecap="round" transform="matrix(0.0695186, 0, 0, 0.0695186, -2120.534174, -646.115335)" fill-opacity="1" fill="#ffffff" fill-rule="evenodd" stroke-linejoin="round" d="M 30776.773881 9422.02734 L 30790.877575 9422.02734 L 30653.9987 9582.112691 L 30640.400716 9582.112691 Z M 30776.773881 9422.02734 " stroke="#ffffff" stroke-width="2.14" stroke-opacity="1" stroke-miterlimit="1.5"/><path fill="#026c5e" d="M 10.84375 9.753906 L 12.300781 9.761719 L 19.054688 19.429688 L 17.59375 19.425781 Z M 10.84375 9.753906 " fill-opacity="1" fill-rule="evenodd"/><path fill="#026c5e" d="M 10.84375 9.753906 L 12.300781 9.761719 L 19.054688 19.429688 L 17.59375 19.425781 Z M 10.953125 9.8125 C 10.953125 9.8125 17.621094 19.367188 17.621094 19.367188 C 17.621094 19.367188 18.941406 19.371094 18.941406 19.371094 L 12.269531 9.820312 Z M 10.953125 9.8125 " fill-opacity="1" fill-rule="evenodd"/></svg>